# File created by Blade
# Date/Time:  Wed Apr 08 17:31:39 2015
# Frame Rate: 120.000 fps
#------------------------------------------------------
:FULLY-SPECIFIED
:DEGREES
846
root 0.836097 24.620832 0.044632 -734.703083 -78.534696 560.836786
Spine 207.515930 -1.094776 -2.391583
Head 14.413752 3.348212 3.773994
LeftShoulder -2.640027 17.915777 27.863187
LeftArm 24.465724 -7.328625 -79.069583
LeftForeArm 14.238473 -0.000000 39.319112
LeftHand -13.242877 -0.000000 -0.790269
LeftHandThumb1 -26.253704 0.000000 33.147579
RightShoulder -27.017787 -52.575402 -7.482937
RightArm 56.261487 -7.477369 39.672165
RightForeArm 3.099336 -0.000000 32.272677
RightHand 4.127250 -0.000000 1.250030
RightHandThumb1 -24.326973 -0.000000 -32.862282
LeftUpLeg 127.400482 -22.748315 -15.489707
LeftLeg 110.888402 -0.000000 -0.000000
LeftFoot -31.226230 -2.501742 -8.312909
LeftToeBase -21.210957 -0.000000 0.000000
RightUpLeg 126.481481 30.850855 6.698339
RightLeg 103.086472 -0.000000 -0.000000
RightFoot -37.699550 21.865615 0.836225
RightToeBase -3.148710 -0.000000 0.000000
847
root 0.806934 24.799048 0.023219 -733.564576 -78.724985 560.355284
Spine 207.113750 -1.123046 -2.293899
Head 14.207803 3.393527 3.766884
LeftShoulder -2.644263 17.845018 27.916240
LeftArm 24.509902 -7.046182 -79.222492
LeftForeArm 14.196759 -0.000000 39.138951
LeftHand -13.169581 0.000000 -0.794251
LeftHandThumb1 -26.253704 0.000000 33.147579
RightShoulder -27.064812 -52.580238 -7.454814
RightArm 56.323883 -7.625074 39.908698
RightForeArm 3.137894 -0.000000 32.628221
RightHand 4.140178 -0.000000 1.608088
RightHandThumb1 -24.326973 -0.000000 -32.862282
LeftUpLeg 127.202824 -22.709715 -14.972325
LeftLeg 109.953210 -0.000000 -0.000000
LeftFoot -31.274200 -2.401089 -8.425244
LeftToeBase -20.734864 -0.000000 0.000000
RightUpLeg 126.247739 30.498037 6.423512
RightLeg 102.334236 -0.000000 -0.000000
RightFoot -37.510951 21.630049 1.269543
RightToeBase -3.207723 -0.000000 0.000000
848
root 0.775426 24.983837 0.003123 -732.379747 -78.937390 559.898455
Spine 206.650545 -1.109685 -2.198147
Head 13.990085 3.504400 3.772533
LeftShoulder -2.654408 17.844609 27.956493
LeftArm 24.616165 -6.746650 -79.377457
LeftForeArm 14.174970 0.000000 38.950587
LeftHand -13.215352 -0.000000 -0.810419
LeftHandThumb1 -26.253704 0.000000 33.147579
RightShoulder -27.093655 -52.576393 -7.477582
RightArm 56.384890 -7.822334 40.132242
RightForeArm 3.060225 -0.000000 33.089115
RightHand 3.902065 0.000000 1.698266
RightHandThumb1 -24.326973 -0.000000 -32.862282
LeftUpLeg 126.937478 -22.622142 -14.426232
LeftLeg 108.989509 -0.000000 -0.000000
LeftFoot -31.305178 -2.221354 -8.455080
LeftToeBase -20.236985 -0.000000 0.000000
RightUpLeg 125.996482 30.159993 6.128050
RightLeg 101.519938 -0.000000 -0.000000
RightFoot -37.395549 21.389644 1.668472
RightToeBase -3.173732 -0.000000 0.000000
849
root 0.737683 25.174454 -0.018718 -730.894096 -79.124862 559.211351
Spine 206.113662 -1.097868 -2.069545
Head 13.783016 3.608038 3.748797
LeftShoulder -2.669651 17.886779 27.983093
LeftArm 24.734309 -6.470324 -79.561088
LeftForeArm 14.209483 -0.000000 38.753695
LeftHand -13.179835 -0.000000 -0.904110
LeftHandThumb1 -26.253704 0.000000 33.147579
RightShoulder -27.176494 -52.648924 -7.442428
RightArm 56.565189 -7.919719 40.354811
RightForeArm 3.135380 -0.000000 33.432065
RightHand 3.960182 -0.000000 2.043495
RightHandThumb1 -24.326973 -0.000000 -32.862282
LeftUpLeg 126.648403 -22.580371 -13.844994
LeftLeg 107.974796 -0.000000 -0.000000
LeftFoot -31.309146 -2.114518 -8.531765
LeftToeBase -19.809584 -0.000000 0.000000
RightUpLeg 125.664096 29.820287 5.794456
RightLeg 100.674896 -0.000000 -0.000000
RightFoot -37.295934 20.935278 1.906305
RightToeBase -3.379192 -0.000000 0.000000
850
root 0.694785 25.371615 -0.042598 -729.443499 -79.282684 558.654001
Spine 205.505812 -1.121267 -1.952007
Head 13.534788 3.737822 3.782139
LeftShoulder -2.669525 17.776317 28.061034
LeftArm 24.696335 -6.105594 -79.718718
LeftForeArm 14.258049 -0.000000 38.551704
LeftHand -13.229103 -0.000000 -0.919775
LeftHandThumb1 -26.253704 0.000000 33.147579
RightShoulder -27.189160 -52.648936 -7.482945
RightArm 56.662578 -8.130720 40.605217
RightForeArm 3.064886 -0.000000 33.855300
RightHand 3.890287 0.000000 1.948565
RightHandThumb1 -24.326973 -0.000000 -32.862282
LeftUpLeg 126.303701 -22.569026 -13.280652
LeftLeg 106.918276 -0.000000 -0.000000
LeftFoot -31.310039 -2.012508 -8.579312
LeftToeBase -19.401846 -0.000000 0.000000
RightUpLeg 125.281112 29.458010 5.380517
RightLeg 99.764002 -0.000000 -0.000000
RightFoot -37.219963 20.487319 2.173542
RightToeBase -3.579717 -0.000000 0.000000
851
root 0.648579 25.570564 -0.060524 -728.219650 -79.426740 558.317029
Spine 204.885413 -1.159444 -1.892218
Head 13.311862 3.825117 3.800362
LeftShoulder -2.637036 17.689831 28.165487
LeftArm 24.644202 -5.788282 -79.957855
LeftForeArm 14.389510 0.000000 38.374500
LeftHand -13.216415 -0.000000 -1.004540
LeftHandThumb1 -26.253704 0.000000 33.147579
RightShoulder -27.279057 -52.691438 -7.452370
RightArm 56.812676 -8.280985 40.863618
RightForeArm 3.133486 0.000000 34.216712
RightHand 3.900630 0.000000 2.124792
RightHandThumb1 -24.326973 -0.000000 -32.862282
LeftUpLeg 125.987890 -22.510425 -12.775597
LeftLeg 105.863333 -0.000000 -0.000000
LeftFoot -31.331720 -1.978285 -8.698658
LeftToeBase -18.956304 -0.000000 0.000000
RightUpLeg 124.955376 29.094738 4.952490
RightLeg 98.801727 -0.000000 -0.000000
RightFoot -37.200484 20.147773 2.600680
RightToeBase -3.291709 -0.000000 0.000000
852
root 0.604057 25.776323 -0.080550 -726.643375 -79.559179 557.641162
Spine 204.259810 -1.169250 -1.774761
Head 13.064743 3.919737 3.776789
LeftShoulder -2.613440 17.596968 28.262738
LeftArm 24.548716 -5.468182 -80.210871
LeftForeArm 14.663757 -0.000000 38.197907
LeftHand -13.229439 -0.000000 -1.050022
LeftHandThumb1 -26.253704 0.000000 33.147579
RightShoulder -27.267521 -52.683475 -7.529412
RightArm 56.937669 -8.464916 41.109031
RightForeArm 3.477117 -0.000000 34.563552
RightHand 3.941568 -0.000000 2.290371
RightHandThumb1 -24.326973 -0.000000 -32.862282
LeftUpLeg 125.676890 -22.455798 -12.212043
LeftLeg 104.750650 -0.000000 -0.000000
LeftFoot -31.315573 -1.905164 -8.795537
LeftToeBase -18.522871 -0.000000 0.000000
RightUpLeg 124.588753 28.747019 4.552155
RightLeg 97.831681 -0.000000 -0.000000
RightFoot -37.131271 19.761933 3.049708
RightToeBase -3.212592 -0.000000 0.000000
853
root 0.554101 25.982222 -0.096073 -725.576033 -79.693497 557.513617
Spine 203.593037 -1.191974 -1.756103
Head 12.811182 3.994116 3.765484
LeftShoulder -2.581887 17.556189 28.368987
LeftArm 24.486064 -5.152063 -80.465831
LeftForeArm 14.976589 -0.000000 38.062909
LeftHand -13.202466 -0.000000 -1.218744
LeftHandThumb1 -26.253704 0.000000 33.147579
RightShoulder -27.309511 -52.686660 -7.567490
RightArm 57.054515 -8.732260 41.323787
RightForeArm 3.453765 -0.000000 34.990032
RightHand 3.767107 -0.000000 1.781338
RightHandThumb1 -24.326973 -0.000000 -32.862282
LeftUpLeg 125.325819 -22.391427 -11.734426
LeftLeg 103.659246 -0.000000 -0.000000
LeftFoot -31.301422 -1.834831 -8.888097
LeftToeBase -18.135168 -0.000000 0.000000
RightUpLeg 124.216516 28.455659 4.058882
RightLeg 96.834176 -0.000000 -0.000000
RightFoot -37.037348 19.386528 3.383826
RightToeBase -3.083577 -0.000000 0.000000
